<?xml version="1.0" encoding="UTF-8" standalone="no"?>
<svg
   version="1.0"
   width="621.000000pt"
   height="621.000000pt"
   viewBox="0 0 621.000000 621.000000"
   preserveAspectRatio="xMidYMid meet"
   id="svg12"
   sodipodi:docname="OnlyLegs.svg"
   inkscape:version="1.2.2 (b0a8486541, 2022-12-01)"
   xmlns:inkscape="http://www.inkscape.org/namespaces/inkscape"
   xmlns:sodipodi="http://sodipodi.sourceforge.net/DTD/sodipodi-0.dtd"
   xmlns="http://www.w3.org/2000/svg"
   xmlns:svg="http://www.w3.org/2000/svg">
  <defs
     id="defs16" />
  <sodipodi:namedview
     id="namedview14"
     pagecolor="#ffffff"
     bordercolor="#666666"
     borderopacity="1.0"
     inkscape:showpageshadow="2"
     inkscape:pageopacity="0.0"
     inkscape:pagecheckerboard="0"
     inkscape:deskcolor="#d1d1d1"
     inkscape:document-units="pt"
     showgrid="false"
     inkscape:zoom="0.75493043"
     inkscape:cx="207.30387"
     inkscape:cy="449.048"
     inkscape:window-width="1856"
     inkscape:window-height="1064"
     inkscape:window-x="56"
     inkscape:window-y="8"
     inkscape:window-maximized="1"
     inkscape:current-layer="g10" />
  <g
     transform="translate(0.000000,621.000000) scale(0.100000,-0.100000)"
     fill="#000000"
     stroke="none"
     id="g10">
    <path
       d="m 1650,6136 c -28,-16 -61,-77 -113,-206 -107,-264 -114,-362 -48,-634 23,-93 46,-204 52,-245 6,-42 17,-104 25,-137 7,-34 19,-97 24,-140 6,-44 20,-124 30,-179 11,-55 27,-138 35,-185 8,-47 24,-125 35,-175 12,-49 29,-132 39,-183 18,-91 25.8809,-120.7949 21.7873,-134.9298 -10.1829,-12.5128 -43.6012,-16.8559 -57.7873,-18.0702 -299,-22 -419,-42 -480,-80 -57,-36 -69,-86 -32,-133 24,-30 137,-88 215,-111 27,-7 74,-22 104,-33 63,-23 67,-21 -90,-47 -107,-18 -264,-59 -327,-86 -71,-30 -97,-116 -49,-164 36,-36 84,-48 364,-91 29,-4 32,-8 32,-39 0,-55 20,-85 74,-112 141.9762,-39.3457 220.3199,-36.183 366,-42 -52.2181,-55.8508 -428.3582,-414.6946 -490.4542,-467.477 -65.1534,47.6205 -260.6727,12.2815 -311.2588,-90.0814 -50.3326,-175.9923 22.0801,-322.4949 253.1708,-312.892 82.63,4.7723 122.7958,22.9511 163.5422,72.4504 110.0316,28.4289 1032.7396,235.9943 1114,257 14,0 79,-71 100,-109 148.2757,-235.4969 289.4861,-410.3884 407,-631 31,-68 62,-134 70,-145 7,-11 32,-74 54,-140 45,-128 68,-283 69,-451 1,-104 16,-126 136,-211 144,-101 193,-121 222,-92 15,15 17,0 55,-493 L 3724,0 h 79 80 l -7,123 c -4,67 -11,151 -16,187 -5,36 -14,137 -20,225 -6,88 -15,176 -21,196 -5,20 -20,112 -33,203 -26,188 -35,206 -97,206 -29,0 -42,-6 -58,-26 -25,-32 -26,-50 -6,-180 23,-156 25,-152 -44,-102 -33,24 -73,51 -90,60 -30,16 -31,20 -32,85 -1,166 -25,313 -73,458 -27,77 -54,150 -62,162 -8,13 -98.9126,185.5819 -130.9126,255.5819 C 3078.1155,2027.0841 3018.0028,2099.9913 2958,2188 c -60.9556,77.2514 -67.3555,103.6675 -109.5679,174.1092 L 2791,2467 l 87,26 c 92,28 219,53 342,69 82,10 115,26 132,64 14,30 0,66 -37,90 -23,15 -37,16 -108,7 -112,-14 -286,-50 -382,-78 -44,-13 -96,-26 -115,-30 -19,-4 -114,-28 -210,-54 -66.7812,-17.1766 -734.4826,-161.2693 -877.9113,-194.6921 -61.4817,-10.1244 -101.9911,25.0397 -69.4824,79.572 30.1454,40.2606 436.3495,409.3445 464.3937,438.1201 18,31 16,60 -8,90 -17.2726,26.1357 -4.8315,31.9291 30,50 53.754,58.4845 37.1768,154.6092 -116,123 -43,-9 -112,-16 -153,-16 -64,1 -69,2 -36,9 77,15 100,87 47,141 -44.2079,53.7356 -129.2499,29.5932 -198,30 -221,1 -246,9 -107,33 231,40 352,84 379,136 45,87 -15,141 -205,185 -41,10 -93,25 -115,34 l -40,16 50,8 c 28,4 122,12 210,18 187,12 208,21 213,86 4,54 -30,83 -97,83 -43,0 -45,1 -21,13 13,7 31,24 40,39 13,24 13,37 -2,120 -9,51 -26,131 -38,178 -21,84 -53,254 -85,445 -9,55 -27,156 -40,225 -13,69 -26,148 -30,175 -7,49 -42,209 -70,315 -19,74 -26,158 -14,165 5,4 22,-7 38,-24 37,-39 81,-42 116,-6 14,13 25,32 25,41 0,12 5,14 18,9 47,-21 71,-17 102,13 21,21 30,40 30,62 0,30 6,24 88,-79 89,-114 175,-258 286,-486 71,-143 131,-332 170,-531 27,-141 35,-158 76,-173 33,-11 55,-7 81,16 15,12 20,10 47,-17 36,-35 82,-39 172,-15 60,16 283,20 405,6 129,-14 389,-90 542,-157 36,-16 74,-10 97,14 8,10 41,69 74,132 33,63 76,141 95,174 20,32 42,74 48,93 11,33 103,189 175,298 95,143 226,309 330,417 l 83,88 26,-26 c 20,-20 34,-25 60,-22 29,3 35,0 40,-19 8,-32 49,-56 86,-51 27,4 34,0 51,-29 22,-37 46,-53 77,-53 12,0 21,-3 21,-7 0,-5 -18,-69 -40,-143 -29,-95 -71,-197 -142,-345 -55,-115 -115,-246 -133,-290 -40,-101 -44,-108 -125,-235 -57.6611,-76.9253 -108.8483,-155.9466 -158,-245 -41.8198,-72.4341 -151.3026,-225.4907 -108,-300 65.0126,-70.4405 142.2339,-55.61 217,-79 24,-8 70,-20 103,-26 32,-7 54,-16 50,-20 -5,-5 -54.4462,-13.6036 -109,-25 -55.5759,-11.6099 -107.6919,-23.3581 -190,-41 -86.0096,-13.9667 -223.7414,-29.6671 -275,-106 -59,-97 -1,-143 260,-211 l 55,-14 -55,-13 c -165,-38 -232,-110 -185,-199 14,-28 13,-29 -13,-39 -15,-6 -49,-15 -77,-22 -65,-14 -153,-72 -161,-105 -13,-51 31,-105 84,-105 10,0 34,11 54,25 20,14 64,31 96,39 l 59,14 17,-83 c 9,-46 16,-107 16,-135 0,-44 4,-56 29,-81 37,-37 65,-37 102,0 27,27 29,35 29,105 0,41 -4,85 -9,98 -4,13 -11,47 -15,76 l -7,52 c 180.2886,6.4837 207.2871,-4.1989 355.8174,23.0309 66,12 305.1826,43.9691 335.1826,52.9691 85,26 170,34 170,16 0,-8 15,-29 34,-48 59,-59 104,-45 271,80 117,89 129,91 178,35 21,-24 59,-74 83,-111 30,-44 62,-77 97,-100 48,-31 58,-33 149,-36 l 98,-4 v 85 85 l -66,-6 c -82,-6 -102,4 -150,77 -160,243 -270,269 -476,113 l -66,-50 -13,29 c -12,31 -54,59 -86,59 -10,0 -34,-8 -53,-18 -19,-11 -62,-22 -95,-25 -33,-3 -80,-13 -104,-22 -25,-8 -97,-24 -160,-36 -150.6695,-31.5585 -331.7946,-51.6255 -476.3702,-37.9738 -66,9 53.3702,64.9738 155.3702,82.9738 221,38 324,64 342,86 31,38 17,107 -26,129 -33,17 -144,40 -226,46 -41,4 -95,10 -120,15 -25,5 -65,12 -90,16 -39,6 -42,8 -22,15 12,5 53,13 90,19 138,23 319,62 386,83 77,25 136,78 136,123 0,35 -47,80 -101,94 -24,7 -80,23 -124,36 -44,13 -136,38 -205,55 -69,17 -128,33 -133,36 -4,2 18,32 49,66 30,34 78,103 106,152 28,50 67,115 88,145 45,68 103,173 120,220 7,19 66,148 131,285 216,458 279,758 208,1000 -12,39 -27,81 -34,95 -7,14 -21,48 -30,75 -26,78 -35,93 -68,106 -58,24 -139,-13 -239,-108 -311,-298 -478,-484 -659,-735 -65,-90 -214,-337 -228,-377 -6,-19 -35,-75 -64,-125 -30,-50 -62,-110 -72,-134 -10,-24 -23,-42 -29,-40 -6,2 -69,22 -141,45 -163,52 -290,84 -380,94 -124,14 -394,10 -455,-6 -30,-8 -67,-15 -81,-15 -15,0 -38,-9 -52,-20 -14,-11 -28,-17 -31,-12 -2,4 -14,55 -25,112 -54,270 -139,504 -262,723 -28,51 -71,127 -95,169 -54,95 -275,380 -364,468 -36,36 -93,89 -128,118 -67,55 -96,63 -142,38 z"
       id="path2"
       sodipodi:nodetypes="cccccccsccccccccccscscccccccccccccscccccssccscccccccccccccccccscccccccccccccccccccscccccscccccsccsccccccscccscccccsccccssccccccccsscccccccccsscccsssscccccsscscccccccccccscscccccccsccccscsscccccccsscccccsscccssccccccc" />
    <path
       d="m 2500.8313,4134.78 c -87.3956,-37.9843 -97.6852,-154.4873 -98,-194.7871 0,-44.3118 -4,-131.089 -9,-192.0177 -5,-60.9286 -5,-159.707 -2,-219.7125 6,-105.2404 7,-110.7794 34,-132.0121 79,-62.775 164,3.6926 217,168.9386 55,175.4007 49,403.4217 -15,519.7401 -35,64.6213 -71,78.4687 -127,49.8507 z"
       id="path4"
       sodipodi:nodetypes="ccsccccc"
       style="stroke-width:1" />
    <path
       d="m 3344.4273,3996.6247 c -48.5583,-50.0953 -37.4868,-100.9153 -40.8178,-215.7915 -2.7697,-95.5212 29.3536,-310.9299 34.084,-408.9796 38.3413,-101.4275 148.4445,-115.5653 198.0212,-37.0586 31.0725,92.512 58.8307,202.0641 62.5807,328.6811 2.6164,88.3394 -12.9222,191.6407 -19.8758,275.1699 -22.7001,117.379 -144.8343,172.9775 -233.9923,57.9787 z"
       id="path6"
       sodipodi:nodetypes="csccscc"
       style="stroke-width:1" />
    <path
       d="M4633 1040 c-60 -25 -78 -94 -158 -605 -20 -126 -45 -273 -56 -327 -10 -53 -19 -99 -19 -102 0 -3 41 -6 91 -6 85 0 90 1 84 19 -3 11 3 66 14 123 10 57 24 142 31 190 l12 87 46 -5 c111 -12 107 -10 141 -74 37 -68 81 -231 81 -296 l0 -44 85 0 85 0 -6 42 c-10 75 -44 237 -60 280 -8 22 -12 43 -9 46 2 2 46 -1 97 -7 181 -22 397 -31 756 -31 l362 0 0 80 0 80 -362 0 c-388 0 -565 9 -828 41 -183 21 -351 46 -357 52 -10 11 46 278 73 342 16 39 11 76 -14 98 -23 21 -62 28 -89 17z"
       id="path8" />
  </g>
</svg>
