<svg id="visual" viewBox="0 0 900 450" width="900" height="450" xmlns="http://www.w3.org/2000/svg" xmlns:xlink="http://www.w3.org/1999/xlink" version="1.1"><g stroke-width="1" stroke-linejoin="bevel"><path d="M494 226.8L513 160.5L504 160Z" fill="#728293" stroke="#728293"></path><path d="M554 179L535 162.5L513 160.5Z" fill="#58636f" stroke="#58636f"></path><path d="M494 226.8L554 179L513 160.5Z" fill="#657281" stroke="#657281"></path><path d="M507 114.3L473 145.8L504 160Z" fill="#657281" stroke="#657281"></path><path d="M504 160L452 168.8L494 226.8Z" fill="#272a2e" stroke="#272a2e"></path><path d="M507 114.3L504 160L513 160.5Z" fill="#657281" stroke="#657281"></path><path d="M473 145.8L452 168.8L504 160Z" fill="#657281" stroke="#657281"></path><path d="M550 50.5L507 114.3L535 162.5Z" fill="#728293" stroke="#728293"></path><path d="M535 162.5L507 114.3L513 160.5Z" fill="#657281" stroke="#657281"></path><path d="M603 284.3L606 202.8L554 179Z" fill="#4b545e" stroke="#4b545e"></path><path d="M554 179L635 175.5L535 162.5Z" fill="#58636f" stroke="#58636f"></path><path d="M452 168.8L440 272.3L494 226.8Z" fill="#58636f" stroke="#58636f"></path><path d="M494 226.8L603 284.3L554 179Z" fill="#8da3b9" stroke="#8da3b9"></path><path d="M440 272.3L518 302.3L494 226.8Z" fill="#4b545e" stroke="#4b545e"></path><path d="M440 272.3L438 300.5L518 302.3Z" fill="#4b545e" stroke="#4b545e"></path><path d="M365 170.5L381 224.8L452 168.8Z" fill="#1c1d1f" stroke="#1c1d1f"></path><path d="M452 168.8L381 224.8L440 272.3Z" fill="#58636f" stroke="#58636f"></path><path d="M440 272.3L349 246.3L438 300.5Z" fill="#657281" stroke="#657281"></path><path d="M365 170.5L452 168.8L404 61.3Z" fill="#33383d" stroke="#33383d"></path><path d="M658 197L635 175.5L606 202.8Z" fill="#58636f" stroke="#58636f"></path><path d="M606 202.8L635 175.5L554 179Z" fill="#657281" stroke="#657281"></path><path d="M518 302.3L603 284.3L494 226.8Z" fill="#8da3b9" stroke="#8da3b9"></path><path d="M404 61.3L452 168.8L473 145.8Z" fill="#4b545e" stroke="#4b545e"></path><path d="M365 170.5L360 218L381 224.8Z" fill="#8da3b9" stroke="#8da3b9"></path><path d="M381 224.8L349 246.3L440 272.3Z" fill="#7f92a6" stroke="#7f92a6"></path><path d="M438 300.5L476 340.3L518 302.3Z" fill="#8da3b9" stroke="#8da3b9"></path><path d="M518 302.3L536 346.8L603 284.3Z" fill="#4b545e" stroke="#4b545e"></path><path d="M635 175.5L550 50.5L535 162.5Z" fill="#33383d" stroke="#33383d"></path><path d="M507 114.3L437 50.3L473 145.8Z" fill="#101010" stroke="#101010"></path><path d="M656 236.3L658 197L606 202.8Z" fill="#101010" stroke="#101010"></path><path d="M635 175.5L640 46.3L550 50.5Z" fill="#4b545e" stroke="#4b545e"></path><path d="M599 374.5L628 289.3L603 284.3Z" fill="#58636f" stroke="#58636f"></path><path d="M603 284.3L656 236.3L606 202.8Z" fill="#657281" stroke="#657281"></path><path d="M476 340.3L536 346.8L518 302.3Z" fill="#657281" stroke="#657281"></path><path d="M628 289.3L656 236.3L603 284.3Z" fill="#3f464d" stroke="#3f464d"></path><path d="M504 13.3L437 50.3L507 114.3Z" fill="#657281" stroke="#657281"></path><path d="M341 247L349 246.3L360 218Z" fill="#3f464d" stroke="#3f464d"></path><path d="M360 218L349 246.3L381 224.8Z" fill="#4b545e" stroke="#4b545e"></path><path d="M438 300.5L451 351.8L476 340.3Z" fill="#58636f" stroke="#58636f"></path><path d="M393 377.5L451 351.8L438 300.5Z" fill="#8da3b9" stroke="#8da3b9"></path><path d="M476 340.3L472 399.5L536 346.8Z" fill="#3f464d" stroke="#3f464d"></path><path d="M722 187.8L673 180.8L658 197Z" fill="#4b545e" stroke="#4b545e"></path><path d="M658 197L673 180.8L635 175.5Z" fill="#58636f" stroke="#58636f"></path><path d="M437 50.3L404 61.3L473 145.8Z" fill="#4b545e" stroke="#4b545e"></path><path d="M297 191.8L341 247L360 218Z" fill="#272a2e" stroke="#272a2e"></path><path d="M306 319.3L393 377.5L438 300.5Z" fill="#4b545e" stroke="#4b545e"></path><path d="M722 187.8L681 162.8L673 180.8Z" fill="#7f92a6" stroke="#7f92a6"></path><path d="M673 180.8L681 162.8L635 175.5Z" fill="#33383d" stroke="#33383d"></path><path d="M550 50.5L504 13.3L507 114.3Z" fill="#58636f" stroke="#58636f"></path><path d="M437 50.3L364 0L404 61.3Z" fill="#33383d" stroke="#33383d"></path><path d="M567 0L493 0L504 13.3Z" fill="#101010" stroke="#101010"></path><path d="M504 13.3L461 0L437 50.3Z" fill="#101010" stroke="#101010"></path><path d="M567 0L504 13.3L550 50.5Z" fill="#8da3b9" stroke="#8da3b9"></path><path d="M628 289.3L686 281L656 236.3Z" fill="#101010" stroke="#101010"></path><path d="M656 236.3L722 187.8L658 197Z" fill="#33383d" stroke="#33383d"></path><path d="M688 303.5L686 281L628 289.3Z" fill="#1c1d1f" stroke="#1c1d1f"></path><path d="M679 90.3L640 46.3L635 175.5Z" fill="#3f464d" stroke="#3f464d"></path><path d="M493 0L461 0L504 13.3Z" fill="#4b545e" stroke="#4b545e"></path><path d="M681 162.8L679 90.3L635 175.5Z" fill="#101010" stroke="#101010"></path><path d="M762 150.5L679 90.3L681 162.8Z" fill="#728293" stroke="#728293"></path><path d="M592 450L599 374.5L536 346.8Z" fill="#101010" stroke="#101010"></path><path d="M536 346.8L599 374.5L603 284.3Z" fill="#101010" stroke="#101010"></path><path d="M578 0L567 0L550 50.5Z" fill="#3f464d" stroke="#3f464d"></path><path d="M640 46.3L578 0L550 50.5Z" fill="#33383d" stroke="#33383d"></path><path d="M414 392.8L472 399.5L451 351.8Z" fill="#33383d" stroke="#33383d"></path><path d="M451 351.8L472 399.5L476 340.3Z" fill="#8da3b9" stroke="#8da3b9"></path><path d="M297 160L297 191.8L365 170.5Z" fill="#4b545e" stroke="#4b545e"></path><path d="M365 170.5L297 191.8L360 218Z" fill="#728293" stroke="#728293"></path><path d="M599 374.5L688 303.5L628 289.3Z" fill="#728293" stroke="#728293"></path><path d="M686 281L722 187.8L656 236.3Z" fill="#657281" stroke="#657281"></path><path d="M293 109.5L297 160L365 170.5Z" fill="#33383d" stroke="#33383d"></path><path d="M340 47.5L365 170.5L404 61.3Z" fill="#1c1d1f" stroke="#1c1d1f"></path><path d="M306 319.3L349 246.3L341 247Z" fill="#4b545e" stroke="#4b545e"></path><path d="M306 319.3L438 300.5L349 246.3Z" fill="#657281" stroke="#657281"></path><path d="M713 286L722 187.8L686 281Z" fill="#272a2e" stroke="#272a2e"></path><path d="M393 377.5L414 392.8L451 351.8Z" fill="#101010" stroke="#101010"></path><path d="M364 0L340 47.5L404 61.3Z" fill="#657281" stroke="#657281"></path><path d="M703 328.8L713 286L688 303.5Z" fill="#58636f" stroke="#58636f"></path><path d="M688 303.5L713 286L686 281Z" fill="#33383d" stroke="#33383d"></path><path d="M297 160L274 160.8L297 191.8Z" fill="#8da3b9" stroke="#8da3b9"></path><path d="M340 47.5L293 109.5L365 170.5Z" fill="#33383d" stroke="#33383d"></path><path d="M293 109.5L274 160.8L297 160Z" fill="#8da3b9" stroke="#8da3b9"></path><path d="M269 290.3L306 319.3L341 247Z" fill="#272a2e" stroke="#272a2e"></path><path d="M269 290.3L341 247L240 232Z" fill="#657281" stroke="#657281"></path><path d="M393 377.5L371 426.8L414 392.8Z" fill="#101010" stroke="#101010"></path><path d="M599 374.5L703 328.8L688 303.5Z" fill="#728293" stroke="#728293"></path><path d="M461 0L364 0L437 50.3Z" fill="#3f464d" stroke="#3f464d"></path><path d="M340 47.5L278 49.5L293 109.5Z" fill="#4b545e" stroke="#4b545e"></path><path d="M679 90.3L692 36.3L640 46.3Z" fill="#728293" stroke="#728293"></path><path d="M640 46.3L669 0L578 0Z" fill="#58636f" stroke="#58636f"></path><path d="M805 91.5L692 36.3L679 90.3Z" fill="#7f92a6" stroke="#7f92a6"></path><path d="M692 36.3L669 0L640 46.3Z" fill="#8da3b9" stroke="#8da3b9"></path><path d="M240 232L341 247L297 191.8Z" fill="#1c1d1f" stroke="#1c1d1f"></path><path d="M273 370.8L346 394.5L306 319.3Z" fill="#1c1d1f" stroke="#1c1d1f"></path><path d="M306 319.3L346 394.5L393 377.5Z" fill="#101010" stroke="#101010"></path><path d="M414 392.8L459 450L472 399.5Z" fill="#3f464d" stroke="#3f464d"></path><path d="M789 182.8L763 167L722 187.8Z" fill="#3f464d" stroke="#3f464d"></path><path d="M722 187.8L762 150.5L681 162.8Z" fill="#3f464d" stroke="#3f464d"></path><path d="M775 159.5L763 167L789 182.8Z" fill="#272a2e" stroke="#272a2e"></path><path d="M763 167L762 150.5L722 187.8Z" fill="#101010" stroke="#101010"></path><path d="M371 426.8L459 450L414 392.8Z" fill="#8da3b9" stroke="#8da3b9"></path><path d="M592 450L613 436.8L599 374.5Z" fill="#272a2e" stroke="#272a2e"></path><path d="M599 374.5L712 360.5L703 328.8Z" fill="#272a2e" stroke="#272a2e"></path><path d="M654 450L712 360.5L599 374.5Z" fill="#7f92a6" stroke="#7f92a6"></path><path d="M703 328.8L793 293.3L713 286Z" fill="#33383d" stroke="#33383d"></path><path d="M592 450L536 346.8L472 399.5Z" fill="#33383d" stroke="#33383d"></path><path d="M364 0L323 0L340 47.5Z" fill="#657281" stroke="#657281"></path><path d="M165 207L240 232L163 202.8Z" fill="#58636f" stroke="#58636f"></path><path d="M346 394.5L371 426.8L393 377.5Z" fill="#4b545e" stroke="#4b545e"></path><path d="M274 160.8L240 232L297 191.8Z" fill="#272a2e" stroke="#272a2e"></path><path d="M219 98.3L274 160.8L293 109.5Z" fill="#3f464d" stroke="#3f464d"></path><path d="M459 450L592 450L472 399.5Z" fill="#1c1d1f" stroke="#1c1d1f"></path><path d="M789 182.8L722 187.8L793 293.3Z" fill="#58636f" stroke="#58636f"></path><path d="M763 167L775 159.5L762 150.5Z" fill="#728293" stroke="#728293"></path><path d="M762 150.5L805 91.5L679 90.3Z" fill="#657281" stroke="#657281"></path><path d="M692 36.3L761 0L669 0Z" fill="#7f92a6" stroke="#7f92a6"></path><path d="M276 41.3L278 49.5L340 47.5Z" fill="#8da3b9" stroke="#8da3b9"></path><path d="M592 450L621 444.8L613 436.8Z" fill="#728293" stroke="#728293"></path><path d="M613 436.8L654 450L599 374.5Z" fill="#101010" stroke="#101010"></path><path d="M323 0L276 41.3L340 47.5Z" fill="#1c1d1f" stroke="#1c1d1f"></path><path d="M278 49.5L248 81.3L293 109.5Z" fill="#3f464d" stroke="#3f464d"></path><path d="M276 41.3L248 81.3L278 49.5Z" fill="#7f92a6" stroke="#7f92a6"></path><path d="M793 293.3L722 187.8L713 286Z" fill="#101010" stroke="#101010"></path><path d="M184 277.3L247 316.5L269 290.3Z" fill="#58636f" stroke="#58636f"></path><path d="M269 290.3L247 316.5L306 319.3Z" fill="#728293" stroke="#728293"></path><path d="M365 450L371 450L371 426.8Z" fill="#272a2e" stroke="#272a2e"></path><path d="M365 450L371 426.8L340 450Z" fill="#1c1d1f" stroke="#1c1d1f"></path><path d="M371 426.8L371 450L459 450Z" fill="#8da3b9" stroke="#8da3b9"></path><path d="M340 450L371 426.8L346 394.5Z" fill="#3f464d" stroke="#3f464d"></path><path d="M247 316.5L273 370.8L306 319.3Z" fill="#1c1d1f" stroke="#1c1d1f"></path><path d="M621 444.8L654 450L613 436.8Z" fill="#101010" stroke="#101010"></path><path d="M592 450L654 450L621 444.8Z" fill="#7f92a6" stroke="#7f92a6"></path><path d="M752 379.5L703 328.8L712 360.5Z" fill="#33383d" stroke="#33383d"></path><path d="M752 379.5L793 293.3L703 328.8Z" fill="#8da3b9" stroke="#8da3b9"></path><path d="M202 0L219 98.3L248 81.3Z" fill="#33383d" stroke="#33383d"></path><path d="M248 81.3L219 98.3L293 109.5Z" fill="#3f464d" stroke="#3f464d"></path><path d="M240 232L184 277.3L269 290.3Z" fill="#33383d" stroke="#33383d"></path><path d="M275 450L340 450L346 394.5Z" fill="#1c1d1f" stroke="#1c1d1f"></path><path d="M724 450L752 379.5L712 360.5Z" fill="#657281" stroke="#657281"></path><path d="M900 110.8L805 91.5L789 182.8Z" fill="#1c1d1f" stroke="#1c1d1f"></path><path d="M789 182.8L805 91.5L775 159.5Z" fill="#3f464d" stroke="#3f464d"></path><path d="M775 159.5L805 91.5L762 150.5Z" fill="#1c1d1f" stroke="#1c1d1f"></path><path d="M805 91.5L761 0L692 36.3Z" fill="#728293" stroke="#728293"></path><path d="M654 450L702 450L712 360.5Z" fill="#7f92a6" stroke="#7f92a6"></path><path d="M323 0L241 0L276 41.3Z" fill="#1c1d1f" stroke="#1c1d1f"></path><path d="M276 41.3L241 0L248 81.3Z" fill="#101010" stroke="#101010"></path><path d="M775 450L788 367.8L752 379.5Z" fill="#1c1d1f" stroke="#1c1d1f"></path><path d="M752 379.5L788 367.8L793 293.3Z" fill="#8da3b9" stroke="#8da3b9"></path><path d="M805 91.5L778 3.3L761 0Z" fill="#3f464d" stroke="#3f464d"></path><path d="M165 207L184 277.3L240 232Z" fill="#1c1d1f" stroke="#1c1d1f"></path><path d="M247 316.5L173 321.5L273 370.8Z" fill="#58636f" stroke="#58636f"></path><path d="M273 370.8L275 450L346 394.5Z" fill="#4b545e" stroke="#4b545e"></path><path d="M702 450L724 450L712 360.5Z" fill="#657281" stroke="#657281"></path><path d="M163 202.8L240 232L274 160.8Z" fill="#4b545e" stroke="#4b545e"></path><path d="M163 202.8L274 160.8L219 98.3Z" fill="#1c1d1f" stroke="#1c1d1f"></path><path d="M144 164L163 202.8L219 98.3Z" fill="#33383d" stroke="#33383d"></path><path d="M89 312.3L173 321.5L184 277.3Z" fill="#101010" stroke="#101010"></path><path d="M177 427.8L275 450L273 370.8Z" fill="#101010" stroke="#101010"></path><path d="M805 91.5L810 17.3L778 3.3Z" fill="#101010" stroke="#101010"></path><path d="M835 0L810 17.3L900 67.5Z" fill="#3f464d" stroke="#3f464d"></path><path d="M95 225.3L184 277.3L165 207Z" fill="#1c1d1f" stroke="#1c1d1f"></path><path d="M184 277.3L173 321.5L247 316.5Z" fill="#4b545e" stroke="#4b545e"></path><path d="M241 0L202 0L248 81.3Z" fill="#1c1d1f" stroke="#1c1d1f"></path><path d="M119 150.5L144 164L219 98.3Z" fill="#728293" stroke="#728293"></path><path d="M163 202.8L132 192.8L165 207Z" fill="#272a2e" stroke="#272a2e"></path><path d="M788 367.8L857 305.5L793 293.3Z" fill="#7f92a6" stroke="#7f92a6"></path><path d="M793 293.3L893 210L789 182.8Z" fill="#33383d" stroke="#33383d"></path><path d="M865 390.8L857 305.5L788 367.8Z" fill="#272a2e" stroke="#272a2e"></path><path d="M724 450L775 450L752 379.5Z" fill="#8da3b9" stroke="#8da3b9"></path><path d="M119 150.5L132 192.8L144 164Z" fill="#4b545e" stroke="#4b545e"></path><path d="M144 164L132 192.8L163 202.8Z" fill="#3f464d" stroke="#3f464d"></path><path d="M900 67.5L810 17.3L805 91.5Z" fill="#728293" stroke="#728293"></path><path d="M810 17.3L835 0L778 3.3Z" fill="#7f92a6" stroke="#7f92a6"></path><path d="M778 3.3L835 0L761 0Z" fill="#4b545e" stroke="#4b545e"></path><path d="M900 237.3L893 210L793 293.3Z" fill="#3f464d" stroke="#3f464d"></path><path d="M111 48.3L119 150.5L219 98.3Z" fill="#58636f" stroke="#58636f"></path><path d="M202 0L168 0L219 98.3Z" fill="#101010" stroke="#101010"></path><path d="M900 237.3L900 214L893 210Z" fill="#272a2e" stroke="#272a2e"></path><path d="M893 210L900 110.8L789 182.8Z" fill="#7f92a6" stroke="#7f92a6"></path><path d="M903 240.3L900 237.3L857 305.5Z" fill="#1c1d1f" stroke="#1c1d1f"></path><path d="M857 305.5L900 237.3L793 293.3Z" fill="#272a2e" stroke="#272a2e"></path><path d="M900 348.5L903 240.3L857 305.5Z" fill="#728293" stroke="#728293"></path><path d="M900 237.3L903 240.3L900 214Z" fill="#4b545e" stroke="#4b545e"></path><path d="M903 240.3L900 110.8L900 214Z" fill="#58636f" stroke="#58636f"></path><path d="M900 214L900 110.8L893 210Z" fill="#657281" stroke="#657281"></path><path d="M173 321.5L177 427.8L273 370.8Z" fill="#657281" stroke="#657281"></path><path d="M118 387.5L177 427.8L173 321.5Z" fill="#33383d" stroke="#33383d"></path><path d="M95 225.3L165 207L132 192.8Z" fill="#4b545e" stroke="#4b545e"></path><path d="M775 450L865 390.8L788 367.8Z" fill="#33383d" stroke="#33383d"></path><path d="M58 160.8L95 225.3L132 192.8Z" fill="#8da3b9" stroke="#8da3b9"></path><path d="M903 240.3L900 67.5L900 110.8Z" fill="#58636f" stroke="#58636f"></path><path d="M900 110.8L900 67.5L805 91.5Z" fill="#33383d" stroke="#33383d"></path><path d="M168 0L111 48.3L219 98.3Z" fill="#33383d" stroke="#33383d"></path><path d="M119 150.5L58 160.8L132 192.8Z" fill="#657281" stroke="#657281"></path><path d="M865 390.8L900 348.5L857 305.5Z" fill="#1c1d1f" stroke="#1c1d1f"></path><path d="M865 390.8L900 359.8L900 348.5Z" fill="#728293" stroke="#728293"></path><path d="M900 348.5L900 359.8L903 240.3Z" fill="#7f92a6" stroke="#7f92a6"></path><path d="M903 240.3L900 23.3L900 67.5Z" fill="#657281" stroke="#657281"></path><path d="M900 67.5L900 23.3L835 0Z" fill="#4b545e" stroke="#4b545e"></path><path d="M95 225.3L89 312.3L184 277.3Z" fill="#33383d" stroke="#33383d"></path><path d="M89 312.3L118 387.5L173 321.5Z" fill="#58636f" stroke="#58636f"></path><path d="M900 23.3L896 0L835 0Z" fill="#8da3b9" stroke="#8da3b9"></path><path d="M903 240.3L900 0L900 23.3Z" fill="#8da3b9" stroke="#8da3b9"></path><path d="M900 23.3L900 0L896 0Z" fill="#657281" stroke="#657281"></path><path d="M118 387.5L125 417.8L177 427.8Z" fill="#3f464d" stroke="#3f464d"></path><path d="M177 427.8L138 450L275 450Z" fill="#58636f" stroke="#58636f"></path><path d="M106 441.8L125 417.8L73 414.8Z" fill="#3f464d" stroke="#3f464d"></path><path d="M125 417.8L138 450L177 427.8Z" fill="#101010" stroke="#101010"></path><path d="M111 48.3L64 116.3L119 150.5Z" fill="#4b545e" stroke="#4b545e"></path><path d="M95 225.3L52 263L89 312.3Z" fill="#4b545e" stroke="#4b545e"></path><path d="M64 116.3L58 160.8L119 150.5Z" fill="#3f464d" stroke="#3f464d"></path><path d="M111 48.3L61 115.5L64 116.3Z" fill="#728293" stroke="#728293"></path><path d="M64 116.3L61 115.5L58 160.8Z" fill="#4b545e" stroke="#4b545e"></path><path d="M775 450L887 450L865 390.8Z" fill="#101010" stroke="#101010"></path><path d="M865 390.8L900 450L900 359.8Z" fill="#8da3b9" stroke="#8da3b9"></path><path d="M0 207.8L52 263L95 225.3Z" fill="#728293" stroke="#728293"></path><path d="M73 414.8L125 417.8L118 387.5Z" fill="#657281" stroke="#657281"></path><path d="M125 417.8L106 441.8L138 450Z" fill="#728293" stroke="#728293"></path><path d="M887 450L900 450L865 390.8Z" fill="#3f464d" stroke="#3f464d"></path><path d="M900 359.8L900 450L903 240.3Z" fill="#728293" stroke="#728293"></path><path d="M60 376.5L118 387.5L89 312.3Z" fill="#101010" stroke="#101010"></path><path d="M0 372.8L60 376.5L-2 367.5Z" fill="#728293" stroke="#728293"></path><path d="M60 376.5L73 414.8L118 387.5Z" fill="#272a2e" stroke="#272a2e"></path><path d="M52 263L0 276L89 312.3Z" fill="#8da3b9" stroke="#8da3b9"></path><path d="M41 450L66 450L73 414.8Z" fill="#728293" stroke="#728293"></path><path d="M58 160.8L0 207.8L95 225.3Z" fill="#8da3b9" stroke="#8da3b9"></path><path d="M0 133.5L0 207.8L58 160.8Z" fill="#33383d" stroke="#33383d"></path><path d="M41 450L73 414.8L0 383.5Z" fill="#4b545e" stroke="#4b545e"></path><path d="M73 414.8L66 450L106 441.8Z" fill="#58636f" stroke="#58636f"></path><path d="M106 441.8L66 450L138 450Z" fill="#8da3b9" stroke="#8da3b9"></path><path d="M7 59.5L0 133.5L61 115.5Z" fill="#3f464d" stroke="#3f464d"></path><path d="M61 115.5L0 133.5L58 160.8Z" fill="#101010" stroke="#101010"></path><path d="M7 59.5L61 115.5L111 48.3Z" fill="#58636f" stroke="#58636f"></path><path d="M0 207.8L0 258.3L52 263Z" fill="#1c1d1f" stroke="#1c1d1f"></path><path d="M0 258.3L0 276L52 263Z" fill="#728293" stroke="#728293"></path><path d="M21 0L7 59.5L111 48.3Z" fill="#3f464d" stroke="#3f464d"></path><path d="M168 0L21 0L111 48.3Z" fill="#58636f" stroke="#58636f"></path><path d="M21 0L0 51.3L7 59.5Z" fill="#272a2e" stroke="#272a2e"></path><path d="M7 59.5L0 51.3L0 133.5Z" fill="#1c1d1f" stroke="#1c1d1f"></path><path d="M0 383.5L73 414.8L60 376.5Z" fill="#33383d" stroke="#33383d"></path><path d="M-2 367.5L60 376.5L89 312.3Z" fill="#33383d" stroke="#33383d"></path><path d="M0 258.3L-2 367.5L0 276Z" fill="#728293" stroke="#728293"></path><path d="M0 276L-2 367.5L89 312.3Z" fill="#58636f" stroke="#58636f"></path><path d="M0 207.8L-2 367.5L0 258.3Z" fill="#8da3b9" stroke="#8da3b9"></path><path d="M0 133.5L-2 367.5L0 207.8Z" fill="#3f464d" stroke="#3f464d"></path><path d="M0 51.3L-2 367.5L0 133.5Z" fill="#728293" stroke="#728293"></path><path d="M-2 367.5L0 383.5L0 372.8Z" fill="#728293" stroke="#728293"></path><path d="M0 372.8L0 383.5L60 376.5Z" fill="#657281" stroke="#657281"></path><path d="M21 0L0 0L0 51.3Z" fill="#4b545e" stroke="#4b545e"></path><path d="M0 51.3L0 0L-2 367.5Z" fill="#1c1d1f" stroke="#1c1d1f"></path><path d="M0 383.5L0 450L41 450Z" fill="#101010" stroke="#101010"></path><path d="M-2 367.5L0 450L0 383.5Z" fill="#657281" stroke="#657281"></path></g></svg>